<?xml version="1.0" encoding="utf-8"?>
<!-- Generator: Adobe Illustrator 17.0.0, SVG Export Plug-In . SVG Version: 6.00 Build 0)  -->
<!DOCTYPE svg PUBLIC "-//W3C//DTD SVG 1.1//EN" "http://www.w3.org/Graphics/SVG/1.1/DTD/svg11.dtd">
<svg version="1.1" id="Layer_1" xmlns="http://www.w3.org/2000/svg" xmlns:xlink="http://www.w3.org/1999/xlink" x="0px" y="0px"
	 width="365.789px" height="345.947px" viewBox="0 0 365.789 345.947" enable-background="new 0 0 365.789 345.947"
	 xml:space="preserve">
<g>
	<path fill-rule="evenodd" clip-rule="evenodd" fill="#181616" d="M186.867,10.431c-89.965,0-162.919,72.938-162.919,162.919
		c0,71.982,46.681,133.05,111.414,154.594c8.141,1.507,11.131-3.536,11.131-7.838c0-3.883-0.15-16.719-0.221-30.333
		c-45.324,9.856-54.888-19.222-54.888-19.222c-7.411-18.83-18.089-23.839-18.089-23.839c-14.783-10.112,1.114-9.904,1.114-9.904
		c16.359,1.149,24.974,16.791,24.974,16.791c14.53,24.905,38.113,17.705,47.411,13.542c1.462-10.528,5.683-17.718,10.344-21.786
		c-36.187-4.118-74.229-18.09-74.229-80.515c0-17.786,6.365-32.32,16.788-43.73c-1.692-4.105-7.269-20.674,1.578-43.116
		c0,0,13.682-4.376,44.813,16.702c12.997-3.611,26.934-5.421,40.779-5.484c13.845,0.063,27.793,1.873,40.814,5.484
		c31.097-21.079,44.757-16.702,44.757-16.702c8.868,22.442,3.291,39.011,1.599,43.116c10.447,11.409,16.767,25.943,16.767,43.73
		c0,62.576-38.113,76.352-74.392,80.386c5.844,5.056,11.05,14.97,11.05,30.17c0,21.799-0.187,39.343-0.187,44.71
		c0,4.337,2.932,9.416,11.189,7.817c64.699-21.567,111.322-82.615,111.322-154.573C349.786,83.369,276.843,10.431,186.867,10.431z"
		/>
	<path fill="#181616" d="M85.654,244.347c-0.358,0.812-1.634,1.054-2.793,0.498c-1.183-0.532-1.844-1.636-1.462-2.448
		c0.35-0.833,1.625-1.064,2.806-0.509C85.388,242.421,86.062,243.535,85.654,244.347L85.654,244.347z M83.649,242.861"/>
	<path fill="#181616" d="M92.254,251.708c-0.777,0.719-2.297,0.385-3.328-0.754c-1.067-1.136-1.264-2.656-0.477-3.386
		c0.801-0.719,2.274-0.382,3.341,0.754C92.857,249.471,93.065,250.978,92.254,251.708L92.254,251.708z M90.699,250.04"/>
	<path fill="#181616" d="M98.677,261.09c-0.999,0.695-2.632,0.045-3.641-1.404c-0.999-1.449-0.999-3.188,0.023-3.883
		c1.009-0.696,2.619-0.069,3.641,1.367C99.697,258.642,99.697,260.381,98.677,261.09L98.677,261.09z M98.677,261.09"/>
	<path fill="#181616" d="M107.477,270.156c-0.893,0.985-2.796,0.719-4.187-0.625c-1.425-1.312-1.821-3.177-0.927-4.163
		c0.906-0.986,2.819-0.709,4.221,0.624C107.998,267.305,108.428,269.181,107.477,270.156L107.477,270.156z M107.477,270.156"/>
	<path fill="#181616" d="M119.617,275.42c-0.395,1.275-2.226,1.855-4.071,1.312c-1.844-0.559-3.048-2.053-2.677-3.341
		c0.382-1.286,2.224-1.889,4.081-1.31C118.793,272.637,119.999,274.121,119.617,275.42L119.617,275.42z M119.617,275.42"/>
	<path fill="#181616" d="M132.951,276.395c0.045,1.344-1.52,2.458-3.457,2.482c-1.947,0.045-3.525-1.043-3.546-2.366
		c0-1.357,1.531-2.458,3.478-2.492C131.363,273.981,132.951,275.061,132.951,276.395L132.951,276.395z M132.951,276.395"/>
	<path fill="#181616" d="M145.358,274.284c0.232,1.31-1.115,2.656-3.038,3.014c-1.892,0.348-3.641-0.464-3.883-1.763
		c-0.234-1.344,1.136-2.69,3.025-3.038C143.387,272.163,145.113,272.951,145.358,274.284L145.358,274.284z M145.358,274.284"/>
</g>
</svg>
